<?xml version="1.0" standalone="no"?>
<!DOCTYPE svg PUBLIC "-//W3C//DTD SVG 1.1//EN" "http://www.w3.org/Graphics/SVG/1.1/DTD/svg11.dtd" >
<svg xmlns="http://www.w3.org/2000/svg" xmlns:xlink="http://www.w3.org/1999/xlink" version="1.1">
<metadata></metadata>
<defs>
<font id="kite_displaybold" horiz-adv-x="1140" >
<font-face units-per-em="2048" ascent="1536" descent="-512" />
<missing-glyph horiz-adv-x="500" />
<glyph unicode="tt" horiz-adv-x="1444" d="M1356 8q-18 -8 -42 -14.5t-49.5 -11t-51 -6.5t-45.5 -2q-165 0 -240.5 77.5t-75.5 248.5v494h-386v-412q0 -62 11 -103t30 -65t45 -34t56 -10q24 0 49 4t49 10l-28 -176q-18 -8 -42 -14.5t-49.5 -11t-51 -6.5t-45.5 -2q-165 0 -240.5 77.5t-75.5 248.5v494h-152v184h152 v296l292 120v-416h386v296l292 120v-416h258l-30 -184h-228v-412q0 -62 11 -103t30 -65t45 -34t56 -10q24 0 49 4t49 10z" />
<glyph unicode="&#xfb01;" horiz-adv-x="1118" d="M1008 1054q-37 37 -72.5 67t-73.5 55.5t-79.5 46.5t-90.5 41l316 130v-340zM1008 0h-290v794h-338v-794h-292v1004q0 88 28 160t81.5 123t131 79t177.5 28q56 0 97 -4t71 -10l-30 -196q-18 5 -41 7.5t-53 2.5q-88 0 -129 -44.5t-41 -139.5v-32h628v-978z" />
<glyph unicode="&#xfb02;" horiz-adv-x="1118" d="M1008 0h-292v794h-336v-794h-292v1004q0 88 28 160t81.5 123t131 79t177.5 28q54 0 95 -4t73 -10l-30 -196q-18 5 -41.5 7.5t-52.5 2.5q-88 0 -129 -44.5t-41 -139.5v-32h336v296l292 120v-1394z" />
<glyph unicode="&#xfb03;" horiz-adv-x="1748" d="M1638 1054q-37 37 -72.5 67t-73.5 55.5t-79.5 46.5t-90.5 41l316 130v-340zM1638 0h-290v794h-338v-794h-294v794h-336v-794h-292v1004q0 88 28 160t81.5 123t131 79t177.5 28q56 0 97 -4t71 -10l-30 -196q-18 5 -41 7.5t-53 2.5q-88 0 -129 -44.5t-41 -139.5v-32h336v26 q0 88 28 160t81.5 123t131.5 79t179 28q54 0 95 -4t71 -10l-30 -196q-18 5 -40.5 7.5t-51.5 2.5q-88 0 -129 -44.5t-41 -139.5v-32h628v-978z" />
<glyph unicode="&#xfb04;" horiz-adv-x="1746" d="M1636 0h-292v794h-336v-794h-292v794h-336v-794h-292v1004q0 88 28 160t81.5 123t131 79t177.5 28q54 0 95 -4t73 -10l-30 -196q-18 5 -41.5 7.5t-52.5 2.5q-88 0 -129 -44.5t-41 -139.5v-32h336v26q0 88 28 160t81.5 123t131 79t177.5 28q54 0 96 -4t72 -10l-30 -196 q-18 5 -41.5 7.5t-52.5 2.5q-88 0 -129 -44.5t-41 -139.5v-32h336v296l292 120v-1394z" />
<glyph unicode="&#xd;" horiz-adv-x="0" />
<glyph horiz-adv-x="0" />
<glyph horiz-adv-x="0" />
<glyph unicode=" "  horiz-adv-x="500" />
<glyph unicode="&#x09;" horiz-adv-x="500" />
<glyph unicode="&#xa0;" horiz-adv-x="500" />
<glyph unicode="!" horiz-adv-x="532" d="M412 0h-282v178l282 118v-296zM398 420h-244l-36 938h316z" />
<glyph unicode="&#x22;" horiz-adv-x="830" d="M308 830h-216v444l292 118zM674 830h-218v444l294 118z" />
<glyph unicode="#" horiz-adv-x="1098" d="M746 180h-188l36 254h-162l-40 -254h-186l38 254h-182l34 196h176l26 172h-178l30 196h180l36 246h188l-36 -246h162l36 246h188l-36 -246h168l-34 -196h-162l-28 -172h168l-32 -196h-164zM630 624l26 182h-172l-28 -182h174z" />
<glyph unicode="$" horiz-adv-x="1082" d="M626 -130l-204 -84v220q-110 8 -190.5 35.5t-131.5 56.5l38 232q32 -17 72.5 -34t84.5 -31.5t89.5 -23.5t87.5 -9q107 0 154.5 37.5t47.5 102.5q0 32 -22.5 60.5t-62 55.5t-93 54.5t-114.5 57.5q-65 31 -121 69t-96.5 85t-63.5 104.5t-23 127.5q0 73 26 133.5t72 107 t109 77t137 44.5v142l204 84v-220q64 -6 115.5 -18.5t90.5 -28t67 -32.5t47 -31l-120 -192q-18 11 -46 25.5t-64 27t-78 21t-88 8.5q-35 0 -65.5 -8.5t-53 -25t-35 -41.5t-12.5 -59q0 -30 16.5 -54.5t47.5 -47t75 -45.5t99 -49q66 -32 131 -70t116 -86t83 -108.5t32 -139.5 q0 -75 -24 -138t-70 -112t-112.5 -82.5t-151.5 -49.5v-148z" />
<glyph unicode="%" horiz-adv-x="1524" d="M450 -28l-176 72l808 1340l174 -72zM581 763q-44 -46 -102 -69.5t-121 -23.5q-66 0 -123.5 24t-100.5 69t-67.5 110t-24.5 147q0 78 23 144.5t65.5 115.5t102 76.5t133.5 27.5t132 -26t98 -72t61 -109.5t21 -138.5q0 -90 -26.5 -159t-70.5 -116zM366 818q57 0 85.5 55 t28.5 155q0 44 -6.5 82t-20 66t-36 44t-53.5 16q-30 0 -52 -16t-37 -44.5t-22 -67t-7 -82.5q-1 -46 6.5 -84t22.5 -65.5t38 -43t53 -15.5zM1384 67q-45 -46 -103 -69.5t-121 -23.5q-66 0 -123.5 24t-99.5 69t-66.5 110t-24.5 147q0 77 23 143.5t65.5 115.5t103 77t134.5 28 t132 -26t97.5 -72.5t60 -110t20.5 -137.5q0 -91 -26.5 -159.5t-71.5 -115.5zM1168 120q57 0 85.5 55t28.5 155q0 44 -6.5 82.5t-20 67t-36 44.5t-53.5 16q-30 0 -52 -16.5t-37 -45t-22 -67.5t-7 -83q-1 -45 7 -83t23 -66t38 -43.5t52 -15.5z" />
<glyph unicode="&#x26;" horiz-adv-x="1272" d="M1262 74l-242 -100l-106 120q-86 -56 -181 -88t-201 -32q-118 0 -207.5 29t-150 80t-91.5 120t-31 149q0 73 19.5 130.5t56 104t88 85.5t116.5 74q-32 38 -58 75t-44 74.5t-28 77t-10 83.5q0 75 30 135.5t83.5 103.5t127.5 66t163 23q90 0 161 -23t120 -63.5t75 -96 t26 -119.5q0 -57 -19.5 -106t-56.5 -93t-90.5 -84.5t-121.5 -80.5l246 -278q61 113 88 248l222 -92q-21 -94 -60.5 -177t-93.5 -155zM491 953q32 -50 77 -97q44 28 74.5 54t49 52t26.5 52t8 54q0 26 -9 49t-26 40t-41 27t-54 10q-62 0 -99 -36.5t-37 -95.5t31 -109zM470 590 q-68 -45 -102 -98.5t-34 -119.5q0 -85 58.5 -135.5t161.5 -50.5q59 0 113.5 18t102.5 50z" />
<glyph unicode="'" horiz-adv-x="468" d="M308 830h-216v444l292 118z" />
<glyph unicode="(" horiz-adv-x="706" d="M494 -366q-34 39 -76 93.5t-84.5 123t-83.5 149t-72.5 172.5t-50.5 194t-19 212t19 212.5t50.5 194.5t72.5 173t83.5 149.5t84.5 123t76 93.5l196 -80q-53 -68 -104.5 -152.5t-93 -191t-67 -236t-25.5 -286.5q0 -156 25.5 -285t67 -235.5t93 -191.5t104.5 -152z" />
<glyph unicode=")" horiz-adv-x="706" d="M16 -286q52 67 104 152t93.5 191.5t67 235.5t25.5 285q0 157 -25.5 286.5t-67 236t-93.5 191t-104 152.5l196 80q34 -39 76 -93.5t84.5 -123t83.5 -149.5t72.5 -173t50.5 -194.5t19 -212.5t-19 -212t-50.5 -194t-72.5 -172.5t-83.5 -149t-84.5 -123t-76 -93.5z" />
<glyph unicode="*" horiz-adv-x="808" d="M686 798l-152 -106l-130 204l-128 -204l-154 106l158 182l-232 62l60 168l216 -88l-16 236h192l-16 -236l216 88l60 -168l-232 -62z" />
<glyph unicode="+" horiz-adv-x="1090" d="M658 114h-228v362h-360l32 204h328v352h228v-352h360l-32 -204h-328v-362z" />
<glyph unicode="," horiz-adv-x="470" d="M374 86q0 -83 -20.5 -143.5t-56 -103t-83 -69t-100.5 -40.5q25 26 44 58t32.5 67t21 72t8.5 73h-128v178l282 118v-210z" />
<glyph unicode="-" horiz-adv-x="654" d="M556 476h-488v204h520z" />
<glyph unicode="." horiz-adv-x="466" d="M376 0h-284v178l284 118v-296z" />
<glyph unicode="/" horiz-adv-x="628" d="M210 -132l-188 56l430 1460l186 -56z" />
<glyph unicode="0" horiz-adv-x="1146" d="M956 172q-64 -94 -160.5 -146t-225.5 -52q-131 0 -227 55.5t-159 151t-93.5 223t-30.5 272.5q0 149 31.5 278.5t95.5 225t161.5 150t229.5 54.5q91 0 164 -26t129.5 -72.5t97 -111t66.5 -142t38.5 -165.5t12.5 -181q0 -158 -32.5 -288.5t-97.5 -225.5zM574 216 q94 0 143 115t49 349q0 229 -48.5 345.5t-145.5 116.5q-95 0 -144.5 -120t-49.5 -366q0 -224 53 -332t143 -108z" />
<glyph unicode="1" horiz-adv-x="742" d="M600 0h-302v1112l-204 -62l-34 216l334 92h206v-1358z" />
<glyph unicode="2" horiz-adv-x="1082" d="M974 0h-900v66q0 109 26.5 194.5t73 153.5t107.5 125.5t131 114.5q55 44 104 86t85.5 83t58 81.5t20.5 81.5q0 68 -46.5 108t-137.5 40q-48 0 -91 -13t-80 -32.5t-67.5 -42.5t-53.5 -42l-108 190q49 49 108 84.5t122 59t128 35t126 11.5q97 0 175.5 -27t134 -77.5 t86 -122.5t30.5 -163q0 -68 -25 -129.5t-67 -118t-97.5 -108.5t-116.5 -100q-41 -33 -85 -67.5t-82.5 -72t-67.5 -78t-39 -84.5h586z" />
<glyph unicode="3" horiz-adv-x="1104" d="M94 282q35 -19 77.5 -36.5t87.5 -30t91 -20t90 -7.5q131 0 195.5 59t64.5 159q0 56 -21.5 94t-59 60t-89 32t-110.5 10v182q50 2 92.5 15t73.5 38.5t48.5 64t17.5 92.5q0 77 -45 122.5t-123 45.5q-48 0 -91 -13t-80 -32.5t-67.5 -41.5t-53.5 -41l-108 190q34 32 80 61 t100 51t113.5 35t120.5 13q112 0 197 -28t142.5 -76t87 -113.5t29.5 -140.5q0 -53 -15 -98.5t-42 -81.5t-63.5 -63.5t-79.5 -44.5q130 -40 196 -126t66 -208q0 -99 -37.5 -178.5t-107.5 -135.5t-169.5 -86t-223.5 -30q-54 0 -109.5 6.5t-109.5 18.5t-104 28.5t-93 36.5z" />
<glyph unicode="4" horiz-adv-x="1164" d="M972 0h-302v262h-634v154l512 942h296l-476 -884h302v264l302 124v-388h156v-212h-156v-262z" />
<glyph unicode="5" horiz-adv-x="1110" d="M106 282q75 -42 160 -68t170 -26q69 0 122 19.5t89 52.5t54.5 76t18.5 90t-21 92t-69.5 79.5t-127.5 55.5t-194 21q-81 0 -180 -12l62 696h788l-34 -212h-510l-22 -286q33 5 63.5 6.5t60.5 1.5q123 0 215 -36t150.5 -97t86.5 -141t28 -168q0 -99 -34 -182t-101 -143 t-167 -93.5t-232 -33.5q-56 0 -112 6.5t-109 18t-102 27.5t-89 36z" />
<glyph unicode="6" horiz-adv-x="1084" d="M894 1178q-96 -7 -190.5 -34.5t-171.5 -81.5t-131 -142.5t-73 -217.5q45 57 117 91.5t169 34.5q90 0 167 -28t134 -81t89 -130t32 -175q0 -101 -38.5 -182t-105.5 -138.5t-156.5 -88.5t-191.5 -31q-136 0 -231.5 50t-154 133.5t-84.5 191t-26 223.5q0 181 58 331 t169.5 256.5t275 165.5t375.5 59zM626 197q38 18 64 48t40 70t14 85q0 46 -12.5 86t-38 70t-63.5 47t-88 17t-87.5 -17t-63 -47t-38.5 -70t-13 -86q0 -45 14 -85t40.5 -70t63.5 -47.5t84 -17.5t84 17z" />
<glyph unicode="7" horiz-adv-x="1136" d="M498 0h-316l520 1146h-616l34 212h930v-140z" />
<glyph unicode="8" horiz-adv-x="1076" d="M840 792q-36 -32 -78 -54q52 -26 99.5 -57t83.5 -72.5t57.5 -96t21.5 -126.5q0 -92 -30 -167.5t-91.5 -130t-156 -84.5t-222.5 -30q-111 0 -198 26.5t-148 76.5t-93.5 123t-32.5 166q0 50 13.5 98.5t41 92t68.5 81t97 66.5q-35 24 -66.5 54t-55 68.5t-37 86.5t-13.5 107 q0 82 37 149t98.5 115t139 74t159.5 26q100 0 179 -24t134.5 -68.5t85 -107t29.5 -138.5q0 -51 -15.5 -97t-42.5 -85.5t-64 -71.5zM681 223q55 49 55 141q0 49 -21.5 85t-59 64t-87 51t-104.5 46q-69 -36 -99.5 -97.5t-30.5 -130.5q0 -50 15 -89t41.5 -65.5t63 -40 t80.5 -13.5q92 0 147 49zM485 860q37 -20 79 -38q35 16 59 38.5t37.5 49t19.5 56.5t6 62q0 43 -12 75t-33.5 53t-51.5 31.5t-65 10.5q-73 0 -116.5 -44.5t-43.5 -117.5q0 -41 15.5 -73t42.5 -57t63 -46z" />
<glyph unicode="9" horiz-adv-x="1082" d="M190 180q95 7 188 33.5t170.5 81.5t132.5 142.5t75 218.5q-45 -57 -116.5 -91.5t-169.5 -34.5q-91 0 -168 28t-133.5 81t-88.5 130t-32 175q0 100 38.5 181.5t105.5 139t156.5 88.5t191.5 31q91 0 163.5 -23t127.5 -63.5t93.5 -97t63 -123t35.5 -140.5t11 -151 q0 -182 -57.5 -332t-169 -256.5t-276 -165t-375.5 -58.5zM628 755q38 17 63.5 47t38 70t12.5 86q0 45 -14 85t-40 70t-63.5 47.5t-84.5 17.5t-84 -17.5t-63.5 -47.5t-40.5 -70t-14 -85q0 -46 13 -86t38.5 -70t63 -47t87.5 -17t88 17z" />
<glyph unicode=":" horiz-adv-x="468" d="M376 708h-284v178l284 118v-296zM376 0h-284v178l284 118v-296z" />
<glyph unicode=";" horiz-adv-x="466" d="M374 708h-284v178l284 118v-296zM374 86q0 -83 -20.5 -143.5t-56 -103t-83 -69t-100.5 -40.5q25 26 44 58t32.5 67t21 72t8.5 73h-128v178l282 118v-210z" />
<glyph unicode="&#x3c;" horiz-adv-x="942" d="M756 194l-656 314v182l656 314l86 -198l-468 -208l468 -206z" />
<glyph unicode="=" horiz-adv-x="980" d="M876 674h-806l32 204h808zM876 298h-806l32 204h808z" />
<glyph unicode="&#x3e;" horiz-adv-x="942" d="M842 508l-656 -314l-86 198l468 206l-468 208l86 198l656 -314v-182z" />
<glyph unicode="?" horiz-adv-x="994" d="M546 0h-282v178l282 118v-296zM540 372h-266v158q0 48 9.5 84.5t29 66.5t49 54.5t70.5 48.5q37 22 66 43.5t49.5 45.5t31.5 52.5t11 66.5q0 83 -53 121.5t-151 38.5q-34 0 -63 -5.5t-53.5 -13t-44.5 -16t-35 -15.5l-106 208q25 13 58.5 26t77.5 23.5t98.5 17.5t121.5 7 q122 0 212 -28t149 -77.5t88 -116.5t29 -144q0 -66 -19.5 -117.5t-50 -91.5t-69 -70.5t-75.5 -54.5q-37 -23 -67 -42t-51.5 -39t-33.5 -44t-12 -57v-130z" />
<glyph unicode="@" horiz-adv-x="1694" d="M1182 -104q-48 -20 -94 -34t-94 -23t-98.5 -13t-107.5 -4q-140 0 -266.5 48.5t-223 140t-153.5 223t-57 296.5q0 114 27 221.5t78 202.5t125 174t167 136t204 88.5t237 31.5q149 0 274 -48.5t215 -134.5t140.5 -205t50.5 -260q0 -124 -32.5 -223t-89.5 -168.5t-135 -107 t-169 -37.5q-28 0 -59.5 3t-62 12.5t-57 28t-43.5 50.5q-36 -36 -90 -65t-126 -29q-75 0 -135.5 28.5t-100.5 79.5t-55.5 122t-0.5 156q16 89 55.5 161.5t93 123.5t117 79t128.5 28t108.5 -23t63.5 -65l12 68h216l-80 -412q-15 -101 -2 -147.5t60 -48.5q37 -2 75.5 20.5 t70 69.5t52 118.5t20.5 169.5q0 110 -35 205t-102.5 165t-168 110t-230.5 40t-246.5 -48.5t-205 -139t-140.5 -220t-52 -290.5q0 -142 42.5 -251.5t118.5 -184.5t181 -113.5t230 -38.5q86 0 173 17.5t155 52.5zM982 708q7 35 0.5 59t-21 39t-34.5 21.5t-39 6.5 q-38 0 -72 -18t-62 -50.5t-48 -78.5t-30 -101q-10 -53 -6.5 -97.5t18 -76t39.5 -49t59 -17.5q39 0 76 20t70 64z" />
<glyph unicode="A" horiz-adv-x="1294" d="M1260 0h-320l-96 346h-416l-100 -346h-306l434 1358h376zM780 576l-140 504l-146 -504h286z" />
<glyph unicode="B" horiz-adv-x="1154" d="M122 0v1358h434q237 0 356.5 -87t119.5 -243q0 -59 -17.5 -109.5t-50.5 -91t-79 -69t-103 -44.5q152 -18 229 -108.5t77 -241.5q0 -174 -135 -269t-403 -95h-428zM500 786q228 0 228 184q0 31 -9 62.5t-33 57.5t-67 42t-111 16h-76v-362h68zM530 208q79 0 127 20t73 50 t33.5 63.5t8.5 60.5q0 34 -9 68t-34.5 63t-70 47t-114.5 18h-112v-390h98z" />
<glyph unicode="C" horiz-adv-x="1156" d="M1112 28q-22 -9 -56 -18.5t-77.5 -17.5t-96 -13t-110.5 -5q-177 0 -310.5 52.5t-223.5 144.5t-135 217.5t-45 271.5q0 175 58.5 310t159 227t236 139.5t290.5 47.5q104 0 183 -15t127 -33l-40 -254q-47 18 -112 33t-148 15q-92 0 -172 -28t-139 -84.5t-93 -141.5 t-34 -200q0 -102 30 -184t86.5 -140t138 -89t185.5 -31q71 0 141 11t117 31z" />
<glyph unicode="D" horiz-adv-x="1366" d="M122 0v1358h410q200 0 346.5 -48t242.5 -135.5t142.5 -209t46.5 -267.5q0 -147 -47 -274.5t-144.5 -222t-246 -148t-350.5 -53.5h-400zM526 224q229 0 345.5 119.5t116.5 346.5q0 226 -115.5 335t-356.5 109h-78v-910h88z" />
<glyph unicode="E" horiz-adv-x="984" d="M884 0h-762v1358h782v-236h-468v-306h412l-36 -224h-376v-356h486z" />
<glyph unicode="F" horiz-adv-x="950" d="M438 0h-316v1358h774v-236h-458v-306h402l-36 -224h-366v-592z" />
<glyph unicode="G" horiz-adv-x="1382" d="M1288 52q-36 -12 -89 -25.5t-116 -25.5t-132 -19.5t-137 -7.5q-190 0 -327.5 46.5t-234.5 137.5q-94 92 -144 222t-50 282q1 172 60.5 306.5t164.5 227t249 140.5t314 48q121 0 212.5 -17.5t147.5 -38.5l-42 -262q-29 13 -61.5 24t-72 19t-87 12.5t-105.5 4.5 q-99 0 -184 -28t-148 -83.5t-98.5 -139t-35.5 -195.5q0 -108 33 -192.5t91.5 -142.5t140 -88.5t179.5 -30.5q53 0 96.5 5t61.5 13v312h-194l36 224h472v-728z" />
<glyph unicode="H" horiz-adv-x="1418" d="M1296 0h-316v592h-542v-592h-316v1358h316v-542h542v542h316v-1358z" />
<glyph unicode="I" horiz-adv-x="560" d="M438 0h-316v1358h316v-1358z" />
<glyph unicode="J" horiz-adv-x="662" d="M548 332q0 -165 -36 -271.5t-108 -170.5q-35 -32 -78 -55t-92.5 -38.5t-103 -23t-108.5 -7.5l-34 208q59 5 105.5 20.5t76.5 45.5q16 18 28 43.5t19.5 64t11 92.5t3.5 130v988h316v-1026z" />
<glyph unicode="K" horiz-adv-x="1234" d="M1254 0h-378l-350 562l-90 -104v-458h-314v1358h314v-518l432 518h348l-496 -572z" />
<glyph unicode="L" horiz-adv-x="940" d="M882 0h-760v1358h316v-1122h482z" />
<glyph unicode="M" horiz-adv-x="1660" d="M1570 0h-292l-44 1020l-310 -1020h-238l-264 988l-56 -988h-276l86 1358h402l252 -924l272 924h396z" />
<glyph unicode="N" horiz-adv-x="1354" d="M1232 0h-316l-518 940v-940h-276v1358h352l482 -848v848h276v-1358z" />
<glyph unicode="O" horiz-adv-x="1426" d="M1183 165q-88 -93 -211.5 -142t-273.5 -49q-151 0 -269.5 54t-201 148t-126 221t-43.5 273q0 153 47 283.5t134 226.5t209.5 150t273.5 54q157 0 277.5 -55t202.5 -149t124 -219.5t42 -266.5q0 -169 -48.5 -302.5t-136.5 -226.5zM853 255q63 35 106.5 96.5t66 146.5 t22.5 186q0 91 -22 173.5t-64 145t-104.5 99t-143.5 36.5q-82 0 -145 -36t-106.5 -98.5t-66 -146.5t-22.5 -179q0 -97 23 -180.5t66.5 -145t106 -97t142.5 -35.5q79 0 141 35z" />
<glyph unicode="P" horiz-adv-x="1146" d="M436 0h-314v1358h422q60 0 124 -7.5t125 -26t116 -49.5t96.5 -77.5t66 -111.5t24.5 -150t-24.5 -149.5t-66 -111.5t-96.5 -77.5t-116 -48.5t-125.5 -25.5t-123.5 -7.5h-108v-516zM520 726q131 0 200.5 53t69.5 159q0 101 -66 155.5t-196 54.5h-92v-422h84z" />
<glyph unicode="Q" horiz-adv-x="1428" d="M1216 -234l-432 212q-21 -2 -41 -3t-43 -1q-151 0 -270 54t-201.5 148t-126.5 221t-44 273q0 153 47.5 283.5t134.5 226.5t209.5 150t272.5 54q157 0 278 -55t203.5 -149t124.5 -219.5t42 -266.5q0 -211 -73.5 -365t-206.5 -243l276 -112zM855 253q63 33 105.5 94 t65 146.5t22.5 190.5q0 91 -22 174t-64 145.5t-104.5 99.5t-143.5 37t-144 -36.5t-106 -99.5t-65.5 -147t-22.5 -179q0 -102 23 -186.5t66.5 -144.5t105.5 -93.5t143 -33.5q79 0 141 33z" />
<glyph unicode="R" horiz-adv-x="1152" d="M1172 0h-342l-392 572v-572h-316v1358h422q51 0 112 -5.5t122.5 -20.5t119 -42.5t101.5 -71.5t70.5 -106.5t26.5 -147.5q0 -65 -22 -128.5t-63 -116.5t-100 -92t-133 -55zM520 726q131 0 200.5 56t69.5 162q0 101 -66 152.5t-196 51.5h-90v-422h82z" />
<glyph unicode="S" horiz-adv-x="1054" d="M112 306q31 -17 76.5 -35t96 -33.5t101 -25.5t92.5 -10q53 0 91.5 13t63 35t36 51.5t11.5 62.5q0 46 -22.5 77t-62 56.5t-93.5 49t-116 53.5q-65 31 -120 67t-95.5 84t-63.5 110t-23 145q0 88 36 158t97.5 119t144.5 75t178 26q86 0 153 -12t117 -29.5t84.5 -37 t57.5 -35.5l-120 -198q-19 11 -47.5 25.5t-64.5 27.5t-77.5 22t-86.5 9q-36 0 -66.5 -10t-52.5 -28.5t-34.5 -46t-12.5 -61.5t16.5 -61t47 -51t74.5 -46.5t100 -47.5q70 -31 135 -66t115.5 -83.5t81 -115.5t30.5 -161q0 -92 -35 -167t-100.5 -127.5t-159 -81t-211.5 -28.5 q-66 0 -127.5 8.5t-115 22t-97 31t-72.5 34.5z" />
<glyph unicode="T" horiz-adv-x="1086" d="M692 0h-316v1122h-358v236h1064l-36 -236h-354v-1122z" />
<glyph unicode="U" horiz-adv-x="1360" d="M1240 514q0 -131 -29 -231.5t-95 -169t-173 -104t-263 -35.5q-157 0 -264 35.5t-173 104t-94.5 169t-28.5 231.5v844h314v-818q0 -86 10.5 -149t38 -104t75.5 -61t122 -20q73 0 121 20t75.5 61t38.5 104t11 149v818h314v-844z" />
<glyph unicode="V" horiz-adv-x="1314" d="M804 0h-274l-524 1358h340l332 -1020l332 1020h300z" />
<glyph unicode="W" horiz-adv-x="1780" d="M1420 0h-266l-254 916l-276 -916h-266l-340 1358h340l178 -854l236 854h296l224 -820l182 820h292z" />
<glyph unicode="X" horiz-adv-x="1258" d="M1238 0h-374l-278 452l-272 -452h-294l432 672l-420 686h362l258 -416l250 416h302l-416 -634z" />
<glyph unicode="Y" horiz-adv-x="1182" d="M756 0h-316v540l-434 818h342l266 -584l286 584h280l-424 -822v-536z" />
<glyph unicode="Z" horiz-adv-x="1070" d="M1012 0h-976v188l598 936h-570v234h944v-184l-604 -938h644z" />
<glyph unicode="[" horiz-adv-x="708" d="M658 -340h-522v1840h522l-32 -206h-224v-1428h224z" />
<glyph unicode="\" horiz-adv-x="642" d="M626 -76l-188 -56l-428 1460l188 56z" />
<glyph unicode="]" horiz-adv-x="708" d="M572 -340h-522l32 206h224v1428h-224l-32 206h522v-1840z" />
<glyph unicode="_" horiz-adv-x="1026" d="M1026 -340h-1026v134h1026v-134z" />
<glyph unicode="`" horiz-adv-x="704" d="M562 1080h-234l-328 284h308z" />
<glyph unicode="a" d="M1030 0h-292v100q-22 -29 -54 -52t-68.5 -39.5t-75 -25.5t-72.5 -9q-99 0 -176 36t-130 102t-80.5 159t-27.5 207q0 120 35 217t94.5 166t139 106t167.5 37q86 0 149.5 -31t98.5 -87v92h292v-978zM738 642q0 47 -14.5 79.5t-37 52t-50.5 28t-54 8.5q-51 0 -92.5 -24 t-70.5 -67.5t-45 -105t-16 -135.5q0 -72 14.5 -129t41.5 -97t64.5 -61t83.5 -21q51 0 94 28.5t82 85.5v358z" />
<glyph unicode="b" horiz-adv-x="1142" d="M400 0h-290v1274l290 120v-508q36 56 100.5 87t149.5 31q88 0 167.5 -37t139 -106t94.5 -166t35 -217q0 -114 -28 -207t-81 -159t-130.5 -102t-176.5 -36q-35 0 -73 9t-74 25.5t-68.5 39.5t-54.5 52v-100zM400 284q78 -114 178 -114q46 0 83.5 21t64.5 61t41.5 97 t14.5 129q0 74 -16 135.5t-45.5 105t-71 67.5t-91.5 24q-26 0 -54 -8.5t-51 -28t-38 -52t-15 -79.5v-358z" />
<glyph unicode="c" horiz-adv-x="902" d="M830 14q-35 -12 -101 -26t-161 -14q-113 0 -207.5 37.5t-162.5 105t-106 162t-38 207.5q0 121 38.5 217.5t111 163t177.5 102t239 35.5q49 0 88 -4t70.5 -10.5t55.5 -15t44 -16.5l-58 -184q-45 15 -91 23.5t-91 8.5q-63 0 -113.5 -20.5t-85.5 -59.5t-54 -96t-19 -130 q0 -92 23.5 -155.5t61.5 -102.5t84.5 -56.5t92.5 -17.5q85 0 140 16.5t94 33.5z" />
<glyph unicode="d" d="M1030 0h-290v100q-23 -29 -55 -52t-68 -39.5t-74.5 -25.5t-72.5 -9q-99 0 -176.5 36t-130.5 102t-81 159t-28 207q0 120 35 217t94.5 166t139 106t167.5 37q86 0 150 -31t100 -87v388l290 120v-1394zM740 642q0 47 -15 79.5t-38 52t-51 28t-54 8.5q-51 0 -92.5 -24 t-70.5 -67.5t-45 -105t-16 -135.5q0 -72 14.5 -129t41.5 -97t64.5 -61t83.5 -21q51 0 94 28.5t84 85.5v358z" />
<glyph unicode="e" horiz-adv-x="1078" d="M926 36q-26 -11 -61 -22t-74.5 -20t-82.5 -14.5t-86 -5.5q-136 0 -241.5 34.5t-178 100.5t-110.5 162.5t-38 220.5q0 133 44.5 229.5t117.5 159.5t166 93t190 30q92 0 175.5 -24t146.5 -79t100.5 -143.5t37.5 -217.5q0 -29 -1.5 -59t-6.5 -63h-662q14 -119 91 -185.5 t207 -66.5q42 0 82 7.5t77.5 19t73 25.5t67.5 28zM750 582q4 49 -5.5 94t-32 78.5t-58 53.5t-84.5 20q-52 0 -90.5 -18t-65.5 -51t-42.5 -78t-19.5 -99h398z" />
<glyph unicode="f" horiz-adv-x="642" d="M380 0h-292v1004q0 88 28 160t81.5 123t131.5 79t177 28q68 0 115 -6.5t79 -15.5l-30 -196q-20 6 -49.5 12t-70.5 6q-86 0 -128 -44.5t-42 -139.5v-32h258l-30 -184h-228v-794z" />
<glyph unicode="g" d="M1030 60q0 -124 -38 -218t-110.5 -157t-178 -95t-241.5 -32q-43 0 -86 5t-82.5 13.5t-74.5 19.5t-61 22l-34 210q32 -13 67 -26.5t72 -25t77 -19t82 -7.5q165 0 240.5 77t75.5 227v60q-23 -29 -55 -52t-68 -39.5t-74.5 -25.5t-72.5 -9q-99 0 -176 35t-130 100t-80.5 157 t-27.5 206q0 120 34.5 216t94 163t138 103t167.5 36q86 0 150.5 -31t99.5 -87v92h292v-918zM738 642q0 47 -14.5 79.5t-37 52t-50.5 28t-54 8.5q-51 0 -92.5 -23t-71.5 -65t-46 -102t-16 -134q0 -144 45.5 -225t136.5 -81q110 0 200 126v336z" />
<glyph unicode="h" horiz-adv-x="1138" d="M1028 0h-290v564q0 42 -7.5 76.5t-24.5 59.5t-45 38.5t-69 13.5q-95 -1 -142.5 -66t-47.5 -176v-510h-292v1274l292 120v-552q59 72 142.5 117t183.5 45q141 0 220.5 -76t79.5 -232v-696z" />
<glyph unicode="i" horiz-adv-x="498" d="M388 1054q-37 37 -72.5 67t-73.5 55.5t-79.5 46.5t-90.5 41l316 130v-340zM388 0h-290v978h290v-978z" />
<glyph unicode="j" horiz-adv-x="512" d="M402 1054q-37 37 -72.5 67t-73.5 55.5t-80.5 46.5t-91.5 41l318 130v-340zM402 82q0 -153 -33.5 -251t-100.5 -159q-32 -29 -72 -50t-85.5 -35.5t-95.5 -21.5t-101 -7l-30 192q54 5 97.5 19t70.5 43q16 16 27 39.5t18 59.5t10 86t3 121v860h292v-896z" />
<glyph unicode="k" horiz-adv-x="1022" d="M1064 0h-330l-252 380l-82 -86v-294h-290v1274l290 120v-790l314 374h328l-370 -396z" />
<glyph unicode="l" horiz-adv-x="512" d="M402 0h-292v1274l292 120v-1394z" />
<glyph unicode="m" horiz-adv-x="1730" d="M1620 0h-292v582q0 42 -7.5 77t-24 60t-44.5 39t-68 14q-48 0 -81 -17.5t-54 -49.5t-30 -77t-9 -100v-528h-290v582q0 42 -7.5 77t-24 60t-45 39t-69.5 14q-47 0 -80 -17.5t-53.5 -49t-29.5 -77t-9 -100.5v-528h-292v978h292v-136q58 72 134 117t176 45q101 0 169.5 -44 t102.5 -128q29 34 66.5 65.5t81 55t91 37.5t97.5 14q70 0 125.5 -21.5t94.5 -63t59.5 -102t20.5 -137.5v-680z" />
<glyph unicode="n" horiz-adv-x="1138" d="M1028 0h-292v564q0 42 -7.5 76.5t-24 59.5t-44.5 38.5t-68 13.5q-95 0 -142.5 -65.5t-47.5 -176.5v-510h-292v978h292v-136q57 72 141 117t185 45q70 0 125.5 -19t94.5 -57t59.5 -96t20.5 -136v-696z" />
<glyph unicode="o" d="M962 141q-63 -74 -161 -120.5t-233 -46.5q-134 0 -231 44.5t-160 117t-93 164t-30 186.5q0 63 13 126t40 120.5t68.5 107t98.5 86t129.5 57.5t162.5 21q89 0 162.5 -20.5t131.5 -56t100.5 -84t70.5 -105t41.5 -119t13.5 -125.5q0 -93 -30.5 -186t-93.5 -167zM666 200 q41 22 68 62.5t40.5 97.5t13.5 126t-15 127.5t-44 100.5t-71 66t-96 24t-94 -22.5t-66 -63.5t-39 -98t-13 -126t14.5 -127t42.5 -100t69.5 -65.5t95.5 -23.5t94 22z" />
<glyph unicode="p" d="M402 -322l-292 -120v1420h292v-122q19 33 49.5 60t66.5 46.5t76 30.5t78 11q99 0 176 -36t130 -102t80.5 -159t27.5 -207q0 -120 -32 -217t-89 -166t-137 -106t-176 -37q-86 0 -147 26.5t-103 65.5v-388zM402 230q26 -23 65 -42.5t93 -19.5q50 0 91.5 26.5t71 72 t45.5 105.5t16 128q0 316 -182 316q-32 0 -67 -17.5t-64.5 -49t-49 -77t-19.5 -100.5v-342z" />
<glyph unicode="q" d="M1030 -322l-292 -120v542q-23 -29 -55 -52t-68 -39.5t-74.5 -25.5t-72.5 -9q-99 0 -176 36t-130 102t-80.5 159t-27.5 207q0 120 34.5 217t94 166t138 106t167.5 37q86 0 150.5 -31t99.5 -87v92h292v-1300zM738 642q0 47 -14.5 79.5t-37 52t-50.5 28t-54 8.5 q-51 0 -92.5 -24t-71.5 -67.5t-46 -105t-16 -135.5q0 -72 14.5 -129t41.5 -97t64.5 -61t83.5 -21q53 0 96 28.5t82 85.5v358z" />
<glyph unicode="r" horiz-adv-x="778" d="M400 0h-290v978h290v-158q18 39 50.5 72.5t72 58.5t81.5 39t80 14q27 0 49.5 -2.5t42.5 -7.5l-80 -250q-52 13 -104.5 2.5t-95 -39t-69.5 -72t-27 -95.5v-540z" />
<glyph unicode="s" horiz-adv-x="868" d="M732 752q-25 9 -53.5 19t-61 19t-69 14.5t-76.5 5.5q-68 0 -98 -26.5t-30 -65.5q0 -25 17 -42t46 -30.5t68.5 -27t84.5 -30.5q62 -24 109.5 -50.5t79.5 -61t48.5 -80.5t16.5 -108q0 -77 -28.5 -136t-82.5 -98.5t-131 -59.5t-174 -20q-113 0 -195 23.5t-135 50.5l34 200 q28 -13 61 -27t69 -26t73.5 -19.5t74.5 -7.5q69 0 109.5 25t40.5 69q0 25 -18 42.5t-51 33.5t-79 33.5t-102 42.5q-55 24 -95 51t-66 61.5t-38.5 78t-12.5 99.5q0 69 28 124.5t79.5 94.5t123.5 60t161 21q64 0 116 -7.5t93 -19t71 -24.5t50 -23z" />
<glyph unicode="t" horiz-adv-x="766" d="M678 8q-18 -8 -42 -14.5t-49.5 -11t-51 -6.5t-45.5 -2q-165 0 -240.5 77.5t-75.5 248.5v494h-152v184h152v296l292 120v-416h258l-30 -184h-228v-412q0 -62 11 -103t30 -65t45 -34t56 -10q24 0 49 4t49 10z" />
<glyph unicode="u" horiz-adv-x="1138" d="M1028 0h-290v118q-71 -71 -149 -107.5t-179 -36.5q-70 0 -125.5 19t-94.5 57t-59.5 96t-20.5 136v696h292v-564q0 -42 7.5 -76.5t24 -59.5t44 -38.5t68.5 -13.5q96 0 144 65.5t48 176.5v510h290v-978z" />
<glyph unicode="v" horiz-adv-x="1018" d="M644 0h-254l-384 978h306l208 -650l210 650h286z" />
<glyph unicode="w" horiz-adv-x="1524" d="M1220 0h-244l-214 660l-214 -660h-244l-294 978h294l158 -632l180 632h260l178 -632l164 632h272z" />
<glyph unicode="x" horiz-adv-x="984" d="M1022 0h-318l-216 320l-216 -320h-284l370 498l-356 480h318l188 -276l186 276h284l-344 -458z" />
<glyph unicode="y" horiz-adv-x="1138" d="M1028 58q0 -123 -38 -217t-110.5 -157.5t-178 -95.5t-241.5 -32q-43 0 -86 5.5t-82.5 14t-74.5 20t-61 22.5l-34 210q32 -13 67.5 -26.5t73 -25.5t77.5 -19t82 -7q163 0 238.5 77t75.5 227v64q-59 -72 -142 -108t-184 -36q-141 0 -220.5 76t-79.5 232v696h292v-564 q0 -42 7.5 -76.5t24 -59.5t44 -38.5t68.5 -13.5q96 0 143 65.5t47 176.5v510h292v-920z" />
<glyph unicode="z" horiz-adv-x="866" d="M840 0h-808v144l468 634h-446v200h802v-154l-464 -624h480z" />
<glyph unicode="{" horiz-adv-x="736" d="M682 -338h-126q-77 0 -140.5 16.5t-109 53.5t-71 97t-25.5 147q0 42 3.5 88t8 92.5t8.5 92.5t4 87q0 25 -5 52t-23 49.5t-52.5 38.5t-93.5 18v176q59 1 93.5 16t52.5 37.5t23 49.5t5 53q0 43 -4 88.5t-8.5 92t-8 92t-3.5 89.5q0 81 24.5 140t70 97t110.5 56.5t145 18.5 h122l-32 -196h-40q-78 0 -110 -44.5t-32 -119.5q0 -32 3.5 -65t8 -69t8.5 -74.5t4 -79.5q0 -65 -12.5 -111.5t-37.5 -78.5t-61.5 -52t-84.5 -30q46 -11 82.5 -29t62 -48.5t38.5 -75.5t13 -109q0 -45 -4 -85.5t-8.5 -77t-8 -69.5t-3.5 -64q0 -38 7.5 -68.5t24 -52t43.5 -33.5 t67 -12h40z" />
<glyph unicode="}" horiz-adv-x="746" d="M60 -338l32 194h40q40 0 67 12t43.5 33.5t24 52t7.5 68.5q0 31 -4 64t-8.5 69.5t-8 77t-3.5 85.5q0 64 13 109t38.5 75.5t61.5 48.5t83 29q-48 10 -84.5 30t-61.5 52t-37.5 78.5t-12.5 111.5q0 41 3.5 79.5t8 74.5t8.5 69t4 65q0 75 -32 119.5t-110 44.5h-40l-32 196h122 q80 0 145 -18.5t110.5 -56.5t70 -97t24.5 -140q0 -44 -4 -89.5t-8.5 -92t-8 -92t-3.5 -88.5q0 -26 5 -53t23 -49.5t52.5 -37.5t93.5 -16v-176q-59 -2 -93.5 -18t-52.5 -38.5t-23 -49.5t-5 -52q0 -41 3.5 -87t8 -92.5t8.5 -92.5t4 -88q0 -87 -25.5 -147t-71 -97t-109.5 -53.5 t-140 -16.5h-126z" />
<glyph unicode="&#xa1;" horiz-adv-x="532" d="M426 748h-282v178l282 118v-296zM438 -340h-316l36 982h244z" />
<glyph unicode="&#xa2;" horiz-adv-x="902" d="M830 14q-29 -9 -77.5 -20.5t-116.5 -17.5v-126l-206 -84v224q-86 20 -155 64.5t-118.5 109t-76 146t-26.5 176.5q0 98 25.5 180t73.5 145t118 106.5t159 66.5v150l206 86v-216q45 0 81.5 -4t66 -10.5t52.5 -15t42 -16.5l-56 -184q-45 15 -91.5 23.5t-90.5 8.5 q-128 0 -201 -79t-73 -227q0 -92 24 -155t62 -102.5t84.5 -57t91.5 -17.5q43 0 77.5 4.5t63 12t51 17t42.5 18.5z" />
<glyph unicode="&#xa3;" horiz-adv-x="982" d="M880 0h-790v174q60 30 88 86t35 127t-1 152t-21 161t-25 154t-12 132q0 88 33 161.5t94 126t147.5 81.5t193.5 29q55 0 104 -7t90 -17.5t73.5 -24.5t54.5 -27l-112 -190q-29 15 -81.5 31.5t-120.5 16.5q-43 0 -78 -13.5t-60.5 -39.5t-39.5 -64t-14 -87q0 -29 2 -52.5 t5.5 -45t8.5 -43.5t10 -47h380l-32 -200h-324q4 -26 4 -69t-8 -91t-27.5 -95.5t-54.5 -82.5h516z" />
<glyph unicode="&#xa5;" horiz-adv-x="1182" d="M1044 244h-292v-244h-316v244h-316l24 156h292v134h-316l24 154h212l-356 670h342l267 -579l287 579h278l-344 -670h238l-24 -154h-292v-134h316z" />
<glyph unicode="&#xa8;" horiz-adv-x="636" d="M252 1080h-252v160l252 104v-264zM636 1080h-254v160l254 104v-264z" />
<glyph unicode="&#xa9;" horiz-adv-x="1680" d="M1094 318q-30 -14 -88.5 -25t-135.5 -11q-118 0 -206.5 34.5t-148 95.5t-89.5 144t-30 180q0 115 38.5 204.5t105.5 150t157 92t193 31.5q68 0 120 -9t84 -23l-34 -176q-29 14 -71 23t-95 9q-59 0 -110.5 -18t-89.5 -54t-60 -91t-22 -129q0 -65 19.5 -118t55.5 -90.5 t88.5 -57.5t118.5 -20q47 0 91.5 8t76.5 20zM1508 357q-50 -86 -120.5 -156.5t-157 -121t-186 -78t-206.5 -27.5q-106 0 -205 27.5t-184.5 78t-156 121t-121 156.5t-78 185t-27.5 206t27.5 206.5t78 186t121 157t156 121t184 78t205.5 27.5t206.5 -27.5t186 -78t157 -121 t121 -157t78 -186t27.5 -206.5t-27.5 -206t-78.5 -185zM1272 302q81 81 126.5 194t45.5 252q0 138 -45.5 251.5t-126.5 194.5t-192 125.5t-242 44.5q-130 0 -240 -44.5t-190.5 -125.5t-126 -194.5t-45.5 -251.5q0 -139 45.5 -252t126 -193.5t190.5 -124.5t240 -44 q131 0 242 44t192 124z" />
<glyph unicode="&#xab;" horiz-adv-x="1012" d="M526 404l-176 -122l-298 392l298 394l176 -122l-194 -272zM958 404l-176 -122l-298 392l298 394l176 -122l-194 -272z" />
<glyph unicode="&#xad;" horiz-adv-x="654" d="M556 476h-488v204h520z" />
<glyph unicode="&#xae;" horiz-adv-x="1680" d="M1186 312h-222l-224 366v-366h-202v872h268q33 0 72 -3.5t78.5 -13.5t76 -27.5t65 -46t45.5 -68.5t17 -95q0 -42 -14 -82.5t-40 -74.5t-63.5 -59t-84.5 -36zM790 776q81 0 124.5 35t43.5 101q0 63 -42 95.5t-122 32.5h-54v-264h50zM1508 357q-50 -86 -120.5 -156.5 t-157 -121t-186 -78t-206.5 -27.5q-106 0 -205 27.5t-184.5 78t-156 121t-121 156.5t-78 185t-27.5 206t27.5 206.5t78 186t121 157t156 121t184 78t205.5 27.5t206.5 -27.5t186 -78t157 -121t121 -157t78 -186t27.5 -206.5t-27.5 -206t-78.5 -185zM1272 302 q81 81 126.5 194t45.5 252q0 138 -45.5 251.5t-126.5 194.5t-192 125.5t-242 44.5q-130 0 -240 -44.5t-190.5 -125.5t-126 -194.5t-45.5 -251.5q0 -139 45.5 -252t126 -193.5t190.5 -124.5t240 -44q131 0 242 44t192 124z" />
<glyph unicode="&#xaf;" horiz-adv-x="688" d="M604 1110h-554v192h584z" />
<glyph unicode="&#xb0;" horiz-adv-x="700" d="M624 975q-23 -53 -63.5 -92.5t-95 -62t-115.5 -22.5q-62 0 -116 22.5t-94.5 62t-64 92.5t-23.5 115q0 61 23.5 115t64 93.5t94.5 62.5t116 23q61 0 115 -23t94.5 -62.5t64.5 -93.5t24 -115q0 -62 -24 -115zM401 964q23 11 39.5 29t26 43t9.5 54t-9.5 54.5t-26 44 t-39.5 29t-51 10.5q-29 0 -52.5 -10.5t-40 -29t-26 -44t-9.5 -54.5t9.5 -54t26 -43t40 -28.5t52.5 -10.5q28 0 51 10z" />
<glyph unicode="&#xb4;" horiz-adv-x="704" d="M704 1364l-328 -284h-234l254 284h308z" />
<glyph unicode="&#xb8;" horiz-adv-x="578" d="M336 -90q28 -4 54 -15.5t46 -30.5t32 -44t12 -56q0 -49 -20 -82.5t-54 -54.5t-78 -30t-92 -9q-47 0 -90 10.5t-72 27.5l36 116q26 -15 58 -23.5t56 -8.5q27 0 49.5 11t22.5 41q0 29 -36.5 47.5t-121.5 24.5l58 184h172z" />
<glyph unicode="&#xbb;" horiz-adv-x="1012" d="M228 282l-176 122l194 270l-194 272l176 122l298 -394zM660 282l-176 122l194 270l-194 272l176 122l298 -394z" />
<glyph unicode="&#xbf;" horiz-adv-x="994" d="M740 748h-284v180l284 116v-296zM918 -292q-25 -13 -58.5 -26t-77.5 -23.5t-98.5 -17.5t-121.5 -7q-122 0 -211.5 28t-149 77.5t-88.5 116.5t-29 144q0 66 19.5 117.5t50.5 91.5t69.5 70.5t76.5 54.5q37 23 67 42t51.5 39t33.5 44t12 57v130h266v-158q0 -48 -10 -84.5 t-29.5 -66.5t-49 -54.5t-69.5 -48.5q-37 -23 -66 -44t-49.5 -45t-31.5 -53t-11 -66q0 -83 52 -121.5t152 -38.5q33 0 62 5.5t53.5 13t44.5 16t36 15.5z" />
<glyph unicode="&#xc0;" horiz-adv-x="1294" d="M1260 0h-320l-96 346h-416l-100 -346h-306l434 1358h376zM780 576l-140 504l-146 -504h286zM790 1460h-234l-328 284h308z" />
<glyph unicode="&#xc1;" horiz-adv-x="1294" d="M1260 0h-320l-96 346h-416l-100 -346h-306l434 1358h376zM780 576l-140 504l-146 -504h286zM1046 1744l-328 -284h-234l254 284h308z" />
<glyph unicode="&#xc2;" horiz-adv-x="1294" d="M1260 0h-320l-96 346h-416l-100 -346h-306l434 1358h376zM780 576l-140 504l-146 -504h286zM988 1512l-168 -70l-182 200l-174 -200l-170 70l232 258h232z" />
<glyph unicode="&#xc3;" horiz-adv-x="1294" d="M1260 0h-320l-96 346h-416l-100 -346h-306l434 1358h376zM780 576l-140 504l-146 -504h286zM1004 1648q-16 -41 -41 -76t-56.5 -60.5t-68 -40.5t-76.5 -15q-43 0 -73 11t-54.5 24t-47.5 24t-53 11q-18 0 -34 -6.5t-29.5 -16t-24.5 -20t-18 -17.5l-138 64q15 41 39.5 76.5 t56 61.5t68 41t76.5 15q44 0 74.5 -11t54.5 -25t47.5 -25t51.5 -11q18 0 34 6.5t29.5 16.5t24 20.5l18.5 18.5z" />
<glyph unicode="&#xc4;" horiz-adv-x="1294" d="M1260 0h-320l-96 346h-416l-100 -346h-306l434 1358h376zM780 576l-140 504l-146 -504h286zM572 1460h-252v160l252 104v-264zM956 1460h-254v160l254 104v-264z" />
<glyph unicode="&#xc5;" horiz-adv-x="1294" d="M1260 0h-320l-96 346h-416l-100 -346h-306l434 1358h376zM780 576l-140 504l-146 -504h286zM839 1567q-18 -38 -48 -66.5t-69.5 -44.5t-81.5 -16q-43 0 -82.5 16t-69.5 44.5t-48 67t-18 84.5q0 44 18 82.5t48 67t69.5 44.5t82.5 16q42 0 81.5 -16t69.5 -44.5t48.5 -67 t18.5 -82.5q0 -46 -19 -85zM677 1558q17 9 29 23t18 32.5t6 38.5q0 39 -24 68.5t-66 29.5q-44 0 -68 -29.5t-24 -68.5q0 -20 6 -38.5t18 -32.5t29 -22.5t39 -8.5q21 0 37 8z" />
<glyph unicode="&#xc6;" horiz-adv-x="1796" d="M1698 0h-764v288h-418l-154 -288h-340l772 1358h924v-236h-468v-306h410l-34 -224h-376v-354h486zM934 512v546l-296 -546h296z" />
<glyph unicode="&#xc7;" horiz-adv-x="1156" d="M1112 28q-41 -17 -118.5 -33t-181.5 -21l-18 -64q28 -4 54 -15.5t46 -30.5t32 -44t12 -56q0 -49 -20 -82.5t-54 -54.5t-78 -30t-92 -9q-47 0 -90 10.5t-72 27.5l36 116q26 -15 58 -23.5t56 -8.5q27 0 49.5 11t22.5 41q0 29 -36.5 47.5t-121.5 24.5l46 148 q-145 18 -254 76.5t-182.5 148t-110.5 205t-37 248.5q0 175 58.5 310t159 227t236 139.5t290.5 47.5q104 0 183 -15t127 -33l-40 -254q-47 18 -112 33t-148 15q-92 0 -172 -28t-139 -84.5t-93 -141.5t-34 -200q0 -102 30 -184t86.5 -140t138 -89t185.5 -31q71 0 141 11 t117 31z" />
<glyph unicode="&#xc8;" horiz-adv-x="984" d="M884 0h-762v1358h782v-236h-468v-306h412l-36 -224h-376v-356h486zM716 1460h-234l-328 284h308z" />
<glyph unicode="&#xc9;" horiz-adv-x="984" d="M884 0h-762v1358h782v-236h-468v-306h412l-36 -224h-376v-356h486zM866 1744l-328 -284h-234l254 284h308z" />
<glyph unicode="&#xca;" horiz-adv-x="984" d="M884 0h-762v1358h782v-236h-468v-306h412l-36 -224h-376v-356h486zM848 1512l-168 -70l-182 200l-174 -200l-170 70l232 258h232z" />
<glyph unicode="&#xcb;" horiz-adv-x="984" d="M884 0h-762v1358h782v-236h-468v-306h412l-36 -224h-376v-356h486zM444 1460h-252v160l252 104v-264zM828 1460h-254v160l254 104v-264z" />
<glyph unicode="&#xcc;" horiz-adv-x="560" d="M438 0h-316v1358h316v-1358zM424 1460h-234l-328 284h308z" />
<glyph unicode="&#xcd;" horiz-adv-x="560" d="M438 0h-316v1358h316v-1358zM690 1744l-328 -284h-234l254 284h308z" />
<glyph unicode="&#xce;" horiz-adv-x="560" d="M438 0h-316v1358h316v-1358zM628 1512l-168 -70l-182 200l-174 -200l-170 70l232 258h232z" />
<glyph unicode="&#xcf;" horiz-adv-x="560" d="M438 0h-316v1358h316v-1358zM214 1460h-252v160l252 104v-264zM598 1460h-254v160l254 104v-264z" />
<glyph unicode="&#xd0;" horiz-adv-x="1434" d="M192 0v568h-192l28 186h164v604h410q200 0 346.5 -48.5t242.5 -135.5t142.5 -208.5t46.5 -267.5q0 -147 -47 -274.5t-144.5 -221.5t-246 -148t-350.5 -54h-400zM596 222q229 0 345.5 120.5t116.5 345.5q0 228 -115.5 337t-356.5 109h-78v-380h198l-28 -186h-170v-346h88z " />
<glyph unicode="&#xd1;" horiz-adv-x="1354" d="M1232 0h-316l-518 940v-940h-276v1358h352l482 -848v848h276v-1358zM1042 1648q-16 -41 -41 -76t-56.5 -60.5t-68 -40.5t-76.5 -15q-43 0 -73 11t-54.5 24t-47.5 24t-53 11q-18 0 -34 -6.5t-29.5 -16t-24.5 -20t-18 -17.5l-138 64q15 41 39.5 76.5t56 61.5t68 41t76.5 15 q44 0 74.5 -11t54.5 -25t47.5 -25t51.5 -11q18 0 34 6.5t29.5 16.5t24 20.5l18.5 18.5z" />
<glyph unicode="&#xd2;" horiz-adv-x="1426" d="M1183 165q-88 -93 -211.5 -142t-273.5 -49q-151 0 -269.5 54t-201 148t-126 221t-43.5 273q0 153 47 283.5t134 226.5t209.5 150t273.5 54q157 0 277.5 -55t202.5 -149t124 -219.5t42 -266.5q0 -169 -48.5 -302.5t-136.5 -226.5zM853 255q63 35 106.5 96.5t66 146.5 t22.5 186q0 91 -22 173.5t-64 145t-104.5 99t-143.5 36.5q-82 0 -145 -36t-106.5 -98.5t-66 -146.5t-22.5 -179q0 -97 23 -180.5t66.5 -145t106 -97t142.5 -35.5q79 0 141 35zM884 1460h-234l-328 284h308z" />
<glyph unicode="&#xd3;" horiz-adv-x="1426" d="M1183 165q-88 -93 -211.5 -142t-273.5 -49q-151 0 -269.5 54t-201 148t-126 221t-43.5 273q0 153 47 283.5t134 226.5t209.5 150t273.5 54q157 0 277.5 -55t202.5 -149t124 -219.5t42 -266.5q0 -169 -48.5 -302.5t-136.5 -226.5zM853 255q63 35 106.5 96.5t66 146.5 t22.5 186q0 91 -22 173.5t-64 145t-104.5 99t-143.5 36.5q-82 0 -145 -36t-106.5 -98.5t-66 -146.5t-22.5 -179q0 -97 23 -180.5t66.5 -145t106 -97t142.5 -35.5q79 0 141 35zM1100 1744l-328 -284h-234l254 284h308z" />
<glyph unicode="&#xd4;" horiz-adv-x="1426" d="M1183 165q-88 -93 -211.5 -142t-273.5 -49q-151 0 -269.5 54t-201 148t-126 221t-43.5 273q0 153 47 283.5t134 226.5t209.5 150t273.5 54q157 0 277.5 -55t202.5 -149t124 -219.5t42 -266.5q0 -169 -48.5 -302.5t-136.5 -226.5zM853 255q63 35 106.5 96.5t66 146.5 t22.5 186q0 91 -22 173.5t-64 145t-104.5 99t-143.5 36.5q-82 0 -145 -36t-106.5 -98.5t-66 -146.5t-22.5 -179q0 -97 23 -180.5t66.5 -145t106 -97t142.5 -35.5q79 0 141 35zM1052 1512l-168 -70l-182 200l-174 -200l-170 70l232 258h232z" />
<glyph unicode="&#xd5;" horiz-adv-x="1426" d="M1183 165q-88 -93 -211.5 -142t-273.5 -49q-151 0 -269.5 54t-201 148t-126 221t-43.5 273q0 153 47 283.5t134 226.5t209.5 150t273.5 54q157 0 277.5 -55t202.5 -149t124 -219.5t42 -266.5q0 -169 -48.5 -302.5t-136.5 -226.5zM853 255q63 35 106.5 96.5t66 146.5 t22.5 186q0 91 -22 173.5t-64 145t-104.5 99t-143.5 36.5q-82 0 -145 -36t-106.5 -98.5t-66 -146.5t-22.5 -179q0 -97 23 -180.5t66.5 -145t106 -97t142.5 -35.5q79 0 141 35zM1070 1648q-16 -41 -41 -76t-56.5 -60.5t-68 -40.5t-76.5 -15q-43 0 -73 11t-54.5 24t-47.5 24 t-53 11q-18 0 -34 -6.5t-29.5 -16t-24.5 -20t-18 -17.5l-138 64q15 41 39.5 76.5t56 61.5t68 41t76.5 15q44 0 74.5 -11t54.5 -25t47.5 -25t51.5 -11q18 0 34 6.5t29.5 16.5t24 20.5l18.5 18.5z" />
<glyph unicode="&#xd6;" horiz-adv-x="1426" d="M1183 165q-88 -93 -211.5 -142t-273.5 -49q-151 0 -269.5 54t-201 148t-126 221t-43.5 273q0 153 47 283.5t134 226.5t209.5 150t273.5 54q157 0 277.5 -55t202.5 -149t124 -219.5t42 -266.5q0 -169 -48.5 -302.5t-136.5 -226.5zM853 255q63 35 106.5 96.5t66 146.5 t22.5 186q0 91 -22 173.5t-64 145t-104.5 99t-143.5 36.5q-82 0 -145 -36t-106.5 -98.5t-66 -146.5t-22.5 -179q0 -97 23 -180.5t66.5 -145t106 -97t142.5 -35.5q79 0 141 35zM650 1460h-252v160l252 104v-264zM1034 1460h-254v160l254 104v-264z" />
<glyph unicode="&#xd7;" horiz-adv-x="1180" d="M978 34l-386 396l-388 -396l-134 136l388 394l-388 396l132 136l390 -398l388 398l132 -136l-388 -396l388 -394z" />
<glyph unicode="&#xd8;" horiz-adv-x="1426" d="M284 -126h-214l190 272q-98 95 -149 229.5t-51 294.5q0 153 47.5 283.5t134.5 226.5t209.5 150t272.5 54q100 0 183.5 -21.5t154.5 -62.5l96 138h208l-170 -246q88 -97 132 -224.5t44 -273.5q0 -169 -48.5 -302.5t-136.5 -226.5t-211.5 -142t-273.5 -49 q-86 0 -160.5 17.5t-139.5 50.5zM556 266q67 -46 158 -46q80 0 143 35t106.5 96.5t66 146.5t22.5 186q0 65 -11.5 124t-32.5 112zM904 1072q-38 32 -85 49t-103 17q-81 0 -144 -36t-106 -98.5t-65.5 -146.5t-22.5 -179q0 -80 15 -149.5t45 -126.5z" />
<glyph unicode="&#xd9;" horiz-adv-x="1360" d="M1240 514q0 -131 -29 -231.5t-95 -169t-173 -104t-263 -35.5q-157 0 -264 35.5t-173 104t-94.5 169t-28.5 231.5v844h314v-818q0 -86 10.5 -149t38 -104t75.5 -61t122 -20q73 0 121 20t75.5 61t38.5 104t11 149v818h314v-844zM852 1460h-234l-328 284h308z" />
<glyph unicode="&#xda;" horiz-adv-x="1360" d="M1240 514q0 -131 -29 -231.5t-95 -169t-173 -104t-263 -35.5q-157 0 -264 35.5t-173 104t-94.5 169t-28.5 231.5v844h314v-818q0 -86 10.5 -149t38 -104t75.5 -61t122 -20q73 0 121 20t75.5 61t38.5 104t11 149v818h314v-844zM1060 1744l-328 -284h-234l254 284h308z" />
<glyph unicode="&#xdb;" horiz-adv-x="1360" d="M1240 514q0 -131 -29 -231.5t-95 -169t-173 -104t-263 -35.5q-157 0 -264 35.5t-173 104t-94.5 169t-28.5 231.5v844h314v-818q0 -86 10.5 -149t38 -104t75.5 -61t122 -20q73 0 121 20t75.5 61t38.5 104t11 149v818h314v-844zM1026 1512l-168 -70l-182 200l-174 -200 l-170 70l232 258h232z" />
<glyph unicode="&#xdc;" horiz-adv-x="1360" d="M1240 514q0 -131 -29 -231.5t-95 -169t-173 -104t-263 -35.5q-157 0 -264 35.5t-173 104t-94.5 169t-28.5 231.5v844h314v-818q0 -86 10.5 -149t38 -104t75.5 -61t122 -20q73 0 121 20t75.5 61t38.5 104t11 149v818h314v-844zM616 1460h-252v160l252 104v-264zM1000 1460 h-254v160l254 104v-264z" />
<glyph unicode="&#xdd;" horiz-adv-x="1182" d="M756 0h-316v540l-434 818h342l266 -584l286 584h280l-424 -822v-536zM906 1744l-328 -284h-234l254 284h308z" />
<glyph unicode="&#xde;" horiz-adv-x="1212" d="M446 0h-314v1260l314 134v-256h152q60 0 124 -7.5t125 -25.5t116 -48.5t96.5 -77.5t66 -111.5t24.5 -149.5q0 -86 -24.5 -150.5t-66 -111.5t-96.5 -78t-116 -49t-125.5 -25.5t-123.5 -7.5h-152v-296zM574 506q131 0 200.5 53t69.5 159q0 101 -67 155.5t-195 54.5h-136 v-422h128z" />
<glyph unicode="&#xdf;" horiz-adv-x="1308" d="M376 0h-288v996q0 106 41.5 185t113 130.5t166 77t201.5 25.5q102 0 193 -23.5t160 -68.5t109 -111t40 -151q0 -60 -26 -98.5t-65 -63.5t-85 -41.5t-85 -33t-65 -37.5t-26 -54q0 -25 21 -43t55.5 -33.5t77 -31.5t86.5 -36q56 -26 103 -52.5t80.5 -61t52 -79.5t18.5 -107 q0 -77 -28.5 -136t-82.5 -98.5t-131 -59.5t-174 -20q-113 0 -195 23.5t-133 50.5l32 200q28 -13 61 -27t69 -26t73.5 -19.5t74.5 -7.5q69 0 109.5 25t40.5 69q0 25 -18 42t-51 33t-79 33.5t-102 43.5q-55 24 -95 51t-66 61.5t-38.5 78t-12.5 99.5q0 62 24.5 102.5t62 67.5 t80.5 46t80.5 38t62 42t24.5 60q0 40 -20 72t-53 53.5t-74 33t-83 11.5q-59 0 -109 -19.5t-79 -60.5q-26 -36 -37 -86t-11 -122v-942z" />
<glyph unicode="&#xe0;" d="M1030 0h-292v100q-22 -29 -54 -52t-68.5 -39.5t-75 -25.5t-72.5 -9q-99 0 -176 36t-130 102t-80.5 159t-27.5 207q0 120 35 217t94.5 166t139 106t167.5 37q86 0 149.5 -31t98.5 -87v92h292v-978zM738 642q0 47 -14.5 79.5t-37 52t-50.5 28t-54 8.5q-51 0 -92.5 -24 t-70.5 -67.5t-45 -105t-16 -135.5q0 -72 14.5 -129t41.5 -97t64.5 -61t83.5 -21q51 0 94 28.5t82 85.5v358zM850 1092h-234l-328 284h308z" />
<glyph unicode="&#xe1;" d="M1030 0h-292v100q-22 -29 -54 -52t-68.5 -39.5t-75 -25.5t-72.5 -9q-99 0 -176 36t-130 102t-80.5 159t-27.5 207q0 120 35 217t94.5 166t139 106t167.5 37q86 0 149.5 -31t98.5 -87v92h292v-978zM738 642q0 47 -14.5 79.5t-37 52t-50.5 28t-54 8.5q-51 0 -92.5 -24 t-70.5 -67.5t-45 -105t-16 -135.5q0 -72 14.5 -129t41.5 -97t64.5 -61t83.5 -21q51 0 94 28.5t82 85.5v358zM924 1376l-328 -284h-234l254 284h308z" />
<glyph unicode="&#xe2;" d="M1030 0h-292v100q-22 -29 -54 -52t-68.5 -39.5t-75 -25.5t-72.5 -9q-99 0 -176 36t-130 102t-80.5 159t-27.5 207q0 120 35 217t94.5 166t139 106t167.5 37q86 0 149.5 -31t98.5 -87v92h292v-978zM738 642q0 47 -14.5 79.5t-37 52t-50.5 28t-54 8.5q-51 0 -92.5 -24 t-70.5 -67.5t-45 -105t-16 -135.5q0 -72 14.5 -129t41.5 -97t64.5 -61t83.5 -21q51 0 94 28.5t82 85.5v358zM930 1146l-168 -70l-182 200l-174 -200l-170 70l232 258h232z" />
<glyph unicode="&#xe3;" d="M1030 0h-292v100q-22 -29 -54 -52t-68.5 -39.5t-75 -25.5t-72.5 -9q-99 0 -176 36t-130 102t-80.5 159t-27.5 207q0 120 35 217t94.5 166t139 106t167.5 37q86 0 149.5 -31t98.5 -87v92h292v-978zM738 642q0 47 -14.5 79.5t-37 52t-50.5 28t-54 8.5q-51 0 -92.5 -24 t-70.5 -67.5t-45 -105t-16 -135.5q0 -72 14.5 -129t41.5 -97t64.5 -61t83.5 -21q51 0 94 28.5t82 85.5v358zM964 1286q-16 -41 -41 -76t-56.5 -60.5t-68 -40.5t-76.5 -15q-43 0 -73 11t-54.5 24t-47.5 24t-53 11q-18 0 -34 -6.5t-29.5 -16t-24.5 -20t-18 -17.5l-138 64 q15 41 39.5 76.5t56 61.5t68 41t76.5 15q44 0 74.5 -11t54.5 -25t47.5 -25t51.5 -11q18 0 34 6.5t29.5 16.5t24 20.5l18.5 18.5z" />
<glyph unicode="&#xe4;" d="M1030 0h-292v100q-22 -29 -54 -52t-68.5 -39.5t-75 -25.5t-72.5 -9q-99 0 -176 36t-130 102t-80.5 159t-27.5 207q0 120 35 217t94.5 166t139 106t167.5 37q86 0 149.5 -31t98.5 -87v92h292v-978zM738 642q0 47 -14.5 79.5t-37 52t-50.5 28t-54 8.5q-51 0 -92.5 -24 t-70.5 -67.5t-45 -105t-16 -135.5q0 -72 14.5 -129t41.5 -97t64.5 -61t83.5 -21q51 0 94 28.5t82 85.5v358zM536 1092h-252v160l252 104v-264zM920 1092h-254v160l254 104v-264z" />
<glyph unicode="&#xe5;" d="M1030 0h-292v100q-22 -29 -54 -52t-68.5 -39.5t-75 -25.5t-72.5 -9q-99 0 -176 36t-130 102t-80.5 159t-27.5 207q0 120 35 217t94.5 166t139 106t167.5 37q86 0 149.5 -31t98.5 -87v92h292v-978zM738 642q0 47 -14.5 79.5t-37 52t-50.5 28t-54 8.5q-51 0 -92.5 -24 t-70.5 -67.5t-45 -105t-16 -135.5q0 -72 14.5 -129t41.5 -97t64.5 -61t83.5 -21q51 0 94 28.5t82 85.5v358zM779 1211q-18 -38 -48 -66.5t-69.5 -44.5t-81.5 -16q-43 0 -82.5 16t-69.5 44.5t-48 67t-18 84.5q0 44 18 82.5t48 67t69.5 44.5t82.5 16q42 0 81.5 -16t69.5 -44.5 t48.5 -67t18.5 -82.5q0 -46 -19 -85zM617 1202q17 9 29 23t18 32.5t6 38.5q0 39 -24 68.5t-66 29.5q-44 0 -68 -29.5t-24 -68.5q0 -20 6 -38.5t18 -32.5t29 -22.5t39 -8.5q21 0 37 8z" />
<glyph unicode="&#xe6;" horiz-adv-x="1688" d="M1536 38q-27 -11 -62 -22t-75 -20t-83 -14.5t-86 -5.5q-149 0 -261.5 42t-184.5 122q-30 -30 -70 -59.5t-90 -52.5t-110 -37.5t-130 -14.5q-68 0 -127.5 18.5t-103 53.5t-68.5 86.5t-25 117.5q0 63 23 113.5t63 89t94.5 65.5t118.5 44.5t134 25.5t141 8h42v56 q0 32 -16 59.5t-44 47.5t-66 31.5t-82 11.5q-212 0 -374 -84l32 200q34 19 77.5 34t92.5 25.5t101 16.5t103 6q56 0 109 -5.5t99 -17t84 -30t64 -43.5q71 51 154.5 75.5t171.5 24.5q93 0 176.5 -24.5t146.5 -80t100 -144.5t37 -219q0 -27 -2.5 -56.5t-5.5 -61.5h-662 q12 -118 90 -184t208 -66q42 0 81.5 7.5t77 19t72.5 25t67 26.5zM634 434q-65 0 -118.5 -9t-92 -28.5t-60 -49.5t-21.5 -73q0 -28 11.5 -47.5t30 -32t42 -18.5t48.5 -6q38 0 73.5 14.5t62.5 43t43.5 70.5t16.5 98v18t-2 20h-34zM1360 584v22q0 46 -11.5 86.5t-34 71 t-56 48.5t-78.5 18q-53 0 -91.5 -18t-65.5 -50.5t-42.5 -77.5t-20.5 -100h400z" />
<glyph unicode="&#xe7;" horiz-adv-x="902" d="M830 14q-33 -11 -92.5 -24t-145.5 -16l-18 -64q28 -4 54 -15.5t46 -30.5t32 -44t12 -56q0 -49 -20 -82.5t-54 -54.5t-78 -30t-92 -9q-47 0 -90 10.5t-72 27.5l36 116q26 -15 58 -23.5t56 -8.5q27 0 49.5 11t22.5 41q0 29 -36.5 47.5t-121.5 24.5l50 158 q-84 20 -152.5 64.5t-117.5 108.5t-75.5 145t-26.5 176q0 121 38.5 217.5t111 163t177.5 102t239 35.5q49 0 88 -4t70.5 -10.5t55.5 -15t44 -16.5l-58 -184q-45 15 -91 23.5t-91 8.5q-63 0 -113.5 -20.5t-85.5 -59.5t-54 -96t-19 -130q0 -92 24 -155.5t61.5 -102.5t84 -56.5 t92.5 -17.5q85 0 140 16.5t94 33.5z" />
<glyph unicode="&#xe8;" horiz-adv-x="1078" d="M926 36q-26 -11 -61 -22t-74.5 -20t-82.5 -14.5t-86 -5.5q-136 0 -241.5 34.5t-178 100.5t-110.5 162.5t-38 220.5q0 133 44.5 229.5t117.5 159.5t166 93t190 30q92 0 175.5 -24t146.5 -79t100.5 -143.5t37.5 -217.5q0 -29 -1.5 -59t-6.5 -63h-662q14 -119 91 -185.5 t207 -66.5q42 0 82 7.5t77.5 19t73 25.5t67.5 28zM750 582q4 49 -5.5 94t-32 78.5t-58 53.5t-84.5 20q-52 0 -90.5 -18t-65.5 -51t-42.5 -78t-19.5 -99h398zM774 1092h-234l-328 284h308z" />
<glyph unicode="&#xe9;" horiz-adv-x="1078" d="M926 36q-26 -11 -61 -22t-74.5 -20t-82.5 -14.5t-86 -5.5q-136 0 -241.5 34.5t-178 100.5t-110.5 162.5t-38 220.5q0 133 44.5 229.5t117.5 159.5t166 93t190 30q92 0 175.5 -24t146.5 -79t100.5 -143.5t37.5 -217.5q0 -29 -1.5 -59t-6.5 -63h-662q14 -119 91 -185.5 t207 -66.5q42 0 82 7.5t77.5 19t73 25.5t67.5 28zM750 582q4 49 -5.5 94t-32 78.5t-58 53.5t-84.5 20q-52 0 -90.5 -18t-65.5 -51t-42.5 -78t-19.5 -99h398zM904 1376l-328 -284h-234l254 284h308z" />
<glyph unicode="&#xea;" horiz-adv-x="1078" d="M926 36q-26 -11 -61 -22t-74.5 -20t-82.5 -14.5t-86 -5.5q-136 0 -241.5 34.5t-178 100.5t-110.5 162.5t-38 220.5q0 133 44.5 229.5t117.5 159.5t166 93t190 30q92 0 175.5 -24t146.5 -79t100.5 -143.5t37.5 -217.5q0 -29 -1.5 -59t-6.5 -63h-662q14 -119 91 -185.5 t207 -66.5q42 0 82 7.5t77.5 19t73 25.5t67.5 28zM750 582q4 49 -5.5 94t-32 78.5t-58 53.5t-84.5 20q-52 0 -90.5 -18t-65.5 -51t-42.5 -78t-19.5 -99h398zM902 1148l-168 -70l-182 200l-174 -200l-170 70l232 258h232z" />
<glyph unicode="&#xeb;" horiz-adv-x="1078" d="M926 36q-26 -11 -61 -22t-74.5 -20t-82.5 -14.5t-86 -5.5q-136 0 -241.5 34.5t-178 100.5t-110.5 162.5t-38 220.5q0 133 44.5 229.5t117.5 159.5t166 93t190 30q92 0 175.5 -24t146.5 -79t100.5 -143.5t37.5 -217.5q0 -29 -1.5 -59t-6.5 -63h-662q14 -119 91 -185.5 t207 -66.5q42 0 82 7.5t77.5 19t73 25.5t67.5 28zM750 582q4 49 -5.5 94t-32 78.5t-58 53.5t-84.5 20q-52 0 -90.5 -18t-65.5 -51t-42.5 -78t-19.5 -99h398zM474 1092h-252v160l252 104v-264zM858 1092h-254v160l254 104v-264z" />
<glyph unicode="&#xec;" horiz-adv-x="498" d="M388 0h-290v978h290v-978zM378 1092h-234l-328 284h308z" />
<glyph unicode="&#xed;" horiz-adv-x="498" d="M388 0h-290v978h290v-978zM672 1376l-328 -284h-234l254 284h308z" />
<glyph unicode="&#xee;" horiz-adv-x="498" d="M388 0h-290v978h290v-978zM592 1148l-168 -70l-182 200l-174 -200l-170 70l232 258h232z" />
<glyph unicode="&#xef;" horiz-adv-x="498" d="M388 0h-290v978h290v-978zM176 1092h-252v160l252 104v-264zM560 1092h-254v160l254 104v-264z" />
<glyph unicode="&#xf0;" horiz-adv-x="1082" d="M510 950l-106 50l64 126q-53 26 -110 41t-116 23l92 180q62 -11 118.5 -27t107.5 -37l58 112l108 -50l-60 -116q89 -55 157.5 -128t115 -160.5t70 -187t23.5 -206.5q0 -76 -11.5 -150t-36 -140.5t-63.5 -122.5t-94 -96.5t-127.5 -63.5t-163.5 -23q-102 0 -191.5 32.5 t-156.5 91t-105.5 141t-38.5 183.5q0 98 32 176.5t88.5 133.5t133.5 84.5t168 29.5q98 0 169.5 -34.5t116.5 -91.5q-18 121 -66.5 204.5t-117.5 139.5zM621 199q38 19 63.5 50.5t39.5 73t14 87.5q0 45 -12.5 86t-38 72.5t-63 50.5t-86.5 19q-50 0 -88 -19t-63.5 -50.5 t-38 -72.5t-12.5 -86q0 -46 14 -87.5t40 -73t63.5 -50.5t84.5 -19q46 0 83 19z" />
<glyph unicode="&#xf1;" horiz-adv-x="1138" d="M1028 0h-292v564q0 42 -7.5 76.5t-24 59.5t-44.5 38.5t-68 13.5q-95 0 -142.5 -65.5t-47.5 -176.5v-510h-292v978h292v-136q57 72 141 117t185 45q70 0 125.5 -19t94.5 -57t59.5 -96t20.5 -136v-696zM918 1286q-16 -41 -41 -76t-56.5 -60.5t-68 -40.5t-76.5 -15 q-43 0 -73 11t-54.5 24t-47.5 24t-53 11q-18 0 -34 -6.5t-29.5 -16t-24.5 -20t-18 -17.5l-138 64q15 41 39.5 76.5t56 61.5t68 41t76.5 15q44 0 74.5 -11t54.5 -25t47.5 -25t51.5 -11q18 0 34 6.5t29.5 16.5t24 20.5l18.5 18.5z" />
<glyph unicode="&#xf2;" d="M962 141q-63 -74 -161 -120.5t-233 -46.5q-134 0 -231 44.5t-160 117t-93 164t-30 186.5q0 63 13 126t40 120.5t68.5 107t98.5 86t129.5 57.5t162.5 21q89 0 162.5 -20.5t131.5 -56t100.5 -84t70.5 -105t41.5 -119t13.5 -125.5q0 -93 -30.5 -186t-93.5 -167zM666 200 q41 22 68 62.5t40.5 97.5t13.5 126t-15 127.5t-44 100.5t-71 66t-96 24t-94 -22.5t-66 -63.5t-39 -98t-13 -126t14.5 -127t42.5 -100t69.5 -65.5t95.5 -23.5t94 22zM768 1092h-234l-328 284h308z" />
<glyph unicode="&#xf3;" d="M962 141q-63 -74 -161 -120.5t-233 -46.5q-134 0 -231 44.5t-160 117t-93 164t-30 186.5q0 63 13 126t40 120.5t68.5 107t98.5 86t129.5 57.5t162.5 21q89 0 162.5 -20.5t131.5 -56t100.5 -84t70.5 -105t41.5 -119t13.5 -125.5q0 -93 -30.5 -186t-93.5 -167zM666 200 q41 22 68 62.5t40.5 97.5t13.5 126t-15 127.5t-44 100.5t-71 66t-96 24t-94 -22.5t-66 -63.5t-39 -98t-13 -126t14.5 -127t42.5 -100t69.5 -65.5t95.5 -23.5t94 22zM924 1376l-328 -284h-234l254 284h308z" />
<glyph unicode="&#xf4;" d="M962 141q-63 -74 -161 -120.5t-233 -46.5q-134 0 -231 44.5t-160 117t-93 164t-30 186.5q0 63 13 126t40 120.5t68.5 107t98.5 86t129.5 57.5t162.5 21q89 0 162.5 -20.5t131.5 -56t100.5 -84t70.5 -105t41.5 -119t13.5 -125.5q0 -93 -30.5 -186t-93.5 -167zM666 200 q41 22 68 62.5t40.5 97.5t13.5 126t-15 127.5t-44 100.5t-71 66t-96 24t-94 -22.5t-66 -63.5t-39 -98t-13 -126t14.5 -127t42.5 -100t69.5 -65.5t95.5 -23.5t94 22zM918 1148l-168 -70l-182 200l-174 -200l-170 70l232 258h232z" />
<glyph unicode="&#xf5;" d="M962 141q-63 -74 -161 -120.5t-233 -46.5q-134 0 -231 44.5t-160 117t-93 164t-30 186.5q0 63 13 126t40 120.5t68.5 107t98.5 86t129.5 57.5t162.5 21q89 0 162.5 -20.5t131.5 -56t100.5 -84t70.5 -105t41.5 -119t13.5 -125.5q0 -93 -30.5 -186t-93.5 -167zM666 200 q41 22 68 62.5t40.5 97.5t13.5 126t-15 127.5t-44 100.5t-71 66t-96 24t-94 -22.5t-66 -63.5t-39 -98t-13 -126t14.5 -127t42.5 -100t69.5 -65.5t95.5 -23.5t94 22zM926 1290q-16 -41 -41 -76t-56.5 -60.5t-68 -40.5t-76.5 -15q-43 0 -73 11t-54.5 24t-47.5 24t-53 11 q-18 0 -34 -6.5t-29.5 -16t-24.5 -20t-18 -17.5l-138 64q15 41 39.5 76.5t56 61.5t68 41t76.5 15q44 0 74.5 -11t54.5 -25t47.5 -25t51.5 -11q18 0 34 6.5t29.5 16.5t24 20.5l18.5 18.5z" />
<glyph unicode="&#xf6;" d="M962 141q-63 -74 -161 -120.5t-233 -46.5q-134 0 -231 44.5t-160 117t-93 164t-30 186.5q0 63 13 126t40 120.5t68.5 107t98.5 86t129.5 57.5t162.5 21q89 0 162.5 -20.5t131.5 -56t100.5 -84t70.5 -105t41.5 -119t13.5 -125.5q0 -93 -30.5 -186t-93.5 -167zM666 200 q41 22 68 62.5t40.5 97.5t13.5 126t-15 127.5t-44 100.5t-71 66t-96 24t-94 -22.5t-66 -63.5t-39 -98t-13 -126t14.5 -127t42.5 -100t69.5 -65.5t95.5 -23.5t94 22zM498 1092h-252v160l252 104v-264zM882 1092h-254v160l254 104v-264z" />
<glyph unicode="&#xf7;" horiz-adv-x="1198" d="M1094 476h-1024l34 208h1024zM738 883q-12 -27 -32.5 -47.5t-47.5 -32t-58 -11.5t-58 11.5t-47 32t-31.5 47.5t-11.5 59q0 31 11.5 58t31.5 47t47 31.5t58 11.5t58 -11.5t47.5 -31.5t32.5 -47t12 -58q0 -32 -12 -59zM738 158q-12 -27 -32.5 -47.5t-47.5 -32.5t-58 -12 t-58 12t-47 32.5t-31.5 47.5t-11.5 58t11.5 58t31.5 47t47 31.5t58 11.5t58 -11.5t47.5 -31.5t32.5 -47t12 -58t-12 -58z" />
<glyph unicode="&#xf8;" d="M254 -118h-214l160 228q-75 75 -110.5 174.5t-35.5 201.5q0 63 13 126t40 120.5t68.5 107t98.5 86t129.5 57.5t162.5 21q131 0 230 -42l84 120h208l-150 -214q75 -74 111.5 -172.5t36.5 -201.5q0 -93 -30.5 -186t-93.5 -167t-161 -120.5t-233 -46.5q-124 0 -222 40z M666 776q-45 30 -104 30q-53 0 -92.5 -23t-65.5 -64t-39 -98.5t-13 -126.5q0 -79 18 -142zM476 202q42 -24 96 -24t95 22t68 62.5t41 97.5t14 126q0 39 -4.5 73.5t-15.5 66.5z" />
<glyph unicode="&#xf9;" horiz-adv-x="1138" d="M1028 0h-290v118q-71 -71 -149 -107.5t-179 -36.5q-70 0 -125.5 19t-94.5 57t-59.5 96t-20.5 136v696h292v-564q0 -42 7.5 -76.5t24 -59.5t44 -38.5t68.5 -13.5q96 0 144 65.5t48 176.5v510h290v-978zM728 1092h-234l-328 284h308z" />
<glyph unicode="&#xfa;" horiz-adv-x="1138" d="M1028 0h-290v118q-71 -71 -149 -107.5t-179 -36.5q-70 0 -125.5 19t-94.5 57t-59.5 96t-20.5 136v696h292v-564q0 -42 7.5 -76.5t24 -59.5t44 -38.5t68.5 -13.5q96 0 144 65.5t48 176.5v510h290v-978zM972 1376l-328 -284h-234l254 284h308z" />
<glyph unicode="&#xfb;" horiz-adv-x="1138" d="M1028 0h-290v118q-71 -71 -149 -107.5t-179 -36.5q-70 0 -125.5 19t-94.5 57t-59.5 96t-20.5 136v696h292v-564q0 -42 7.5 -76.5t24 -59.5t44 -38.5t68.5 -13.5q96 0 144 65.5t48 176.5v510h290v-978zM916 1146l-168 -70l-182 200l-174 -200l-170 70l232 258h232z" />
<glyph unicode="&#xfc;" horiz-adv-x="1138" d="M1028 0h-290v118q-71 -71 -149 -107.5t-179 -36.5q-70 0 -125.5 19t-94.5 57t-59.5 96t-20.5 136v696h292v-564q0 -42 7.5 -76.5t24 -59.5t44 -38.5t68.5 -13.5q96 0 144 65.5t48 176.5v510h290v-978zM506 1092h-252v160l252 104v-264zM890 1092h-254v160l254 104v-264z " />
<glyph unicode="&#xfd;" horiz-adv-x="1138" d="M1028 58q0 -123 -38 -217t-110.5 -157.5t-178 -95.5t-241.5 -32q-43 0 -86 5.5t-82.5 14t-74.5 20t-61 22.5l-34 210q32 -13 67.5 -26.5t73 -25.5t77.5 -19t82 -7q163 0 238.5 77t75.5 227v64q-59 -72 -142 -108t-184 -36q-141 0 -220.5 76t-79.5 232v696h292v-564 q0 -42 7.5 -76.5t24 -59.5t44 -38.5t68.5 -13.5q96 0 143 65.5t47 176.5v510h292v-920zM972 1376l-328 -284h-234l254 284h308z" />
<glyph unicode="&#xfe;" d="M402 -322l-292 -120v1718l292 120v-540q19 34 49.5 61.5t66.5 47t76 30.5t78 11q99 0 176 -36.5t130 -102.5t80.5 -159t27.5 -206q0 -120 -32 -217.5t-89 -166.5t-137 -106.5t-176 -37.5q-86 0 -147 27t-103 65v-388zM402 232q26 -23 65 -42.5t93 -19.5q50 0 91.5 26.5 t71 71.5t45.5 105.5t16 128.5q0 316 -182 316q-32 0 -67 -17.5t-64.5 -49t-49 -77t-19.5 -100.5v-342z" />
<glyph unicode="&#xff;" horiz-adv-x="1138" d="M1028 58q0 -123 -38 -217t-110.5 -157.5t-178 -95.5t-241.5 -32q-43 0 -86 5.5t-82.5 14t-74.5 20t-61 22.5l-34 210q32 -13 67.5 -26.5t73 -25.5t77.5 -19t82 -7q163 0 238.5 77t75.5 227v64q-59 -72 -142 -108t-184 -36q-141 0 -220.5 76t-79.5 232v696h292v-564 q0 -42 7.5 -76.5t24 -59.5t44 -38.5t68.5 -13.5q96 0 143 65.5t47 176.5v510h292v-920zM506 1094h-252v160l252 104v-264zM890 1094h-254v160l254 104v-264z" />
<glyph unicode="&#x131;" horiz-adv-x="498" d="M388 0h-290v978h290v-978z" />
<glyph unicode="&#x152;" horiz-adv-x="1768" d="M1666 0h-762q-47 -12 -97.5 -19t-108.5 -7q-151 0 -269.5 54t-201 148t-126 221t-43.5 273q0 153 47 283.5t134 226.5t209 150t272 54q54 0 103.5 -6t94.5 -20h770v-236h-470v-306h412l-36 -224h-376v-356h486zM904 1068q-38 33 -85.5 52.5t-106.5 19.5q-81 0 -144 -36.5 t-106 -99.5t-65.5 -147t-22.5 -179q0 -97 23 -180.5t66.5 -145t105.5 -97t143 -35.5q57 0 105 17.5t87 50.5v780z" />
<glyph unicode="&#x153;" horiz-adv-x="1800" d="M1646 38q-27 -11 -62 -22t-74.5 -20t-83 -14.5t-86.5 -5.5q-140 0 -243 37.5t-169 108.5q-59 -65 -148 -105.5t-214 -40.5q-134 0 -231 44.5t-160 117.5t-93 165t-30 187q0 63 13 126t40 120.5t68.5 107t98.5 86t129.5 57.5t162.5 21q127 0 217 -40t149 -106 q69 73 162.5 109.5t199.5 36.5q103 0 193.5 -30.5t154.5 -98.5t93.5 -181t10.5 -278h-662q12 -117 90 -183.5t208 -66.5q42 0 81.5 7.5t77 19t72.5 25t67 26.5zM664 202q41 23 68 64t40.5 98t13.5 126q0 68 -15 126.5t-44 101t-71 66.5t-96 24t-94 -23t-66 -64t-39 -98 t-13 -125q0 -69 14.5 -127.5t42.5 -100.5t69.5 -66t95.5 -24t94 22zM1470 584q3 50 -7 95t-32.5 78.5t-57.5 53t-83 19.5q-52 0 -91 -18t-66 -50.5t-42.5 -77.5t-20.5 -100h400z" />
<glyph unicode="&#x178;" horiz-adv-x="1182" d="M756 0h-316v540l-434 818h342l266 -584l286 584h280l-424 -822v-536zM552 1460h-252v160l252 104v-264zM936 1460h-254v160l254 104v-264z" />
<glyph unicode="&#x2c6;" horiz-adv-x="694" d="M694 1106l-168 -70l-182 200l-174 -200l-170 70l232 258h232z" />
<glyph unicode="&#x2da;" horiz-adv-x="684" d="M541 1195q-18 -38 -48 -66.5t-69.5 -44.5t-81.5 -16q-43 0 -82.5 16t-69.5 44.5t-48 67t-18 84.5q0 44 18 82.5t48 67t69.5 44.5t82.5 16q42 0 81.5 -16t69.5 -44.5t48.5 -67t18.5 -82.5q0 -46 -19 -85zM379 1186q17 9 29 23t18 32.5t6 38.5q0 39 -24 68.5t-66 29.5 q-44 0 -68 -29.5t-24 -68.5q0 -20 6 -38.5t18 -32.5t29 -22.5t39 -8.5q21 0 37 8z" />
<glyph unicode="&#x2dc;" horiz-adv-x="714" d="M714 1290q-16 -41 -41 -76t-56.5 -60.5t-68 -40.5t-76.5 -15q-43 0 -73 11t-54.5 24t-47.5 24t-53 11q-18 0 -34 -6.5t-29.5 -16t-24.5 -20t-18 -17.5l-138 64q15 41 39.5 76.5t56 61.5t68 41t76.5 15q44 0 74.5 -11t54.5 -25t47.5 -25t51.5 -11q18 0 34 6.5t29.5 16.5 t24 20.5l18.5 18.5z" />
<glyph unicode="&#x2000;" horiz-adv-x="931" />
<glyph unicode="&#x2001;" horiz-adv-x="1862" />
<glyph unicode="&#x2002;" horiz-adv-x="931" />
<glyph unicode="&#x2003;" horiz-adv-x="1862" />
<glyph unicode="&#x2004;" horiz-adv-x="620" />
<glyph unicode="&#x2005;" horiz-adv-x="465" />
<glyph unicode="&#x2006;" horiz-adv-x="310" />
<glyph unicode="&#x2007;" horiz-adv-x="310" />
<glyph unicode="&#x2008;" horiz-adv-x="232" />
<glyph unicode="&#x2009;" horiz-adv-x="372" />
<glyph unicode="&#x200a;" horiz-adv-x="103" />
<glyph unicode="&#x2010;" horiz-adv-x="654" d="M556 476h-488v204h520z" />
<glyph unicode="&#x2011;" horiz-adv-x="654" d="M556 476h-488v204h520z" />
<glyph unicode="&#x2012;" horiz-adv-x="654" d="M556 476h-488v204h520z" />
<glyph unicode="&#x2013;" horiz-adv-x="972" d="M894 416h-846l30 190h846z" />
<glyph unicode="&#x2014;" horiz-adv-x="1982" d="M1904 416h-1856l30 190h1856z" />
<glyph unicode="&#x2018;" horiz-adv-x="466" d="M374 934l-282 -116v208q0 83 20.5 144t56.5 104t83.5 69.5t101.5 40.5q-51 -54 -78 -126t-30 -144h128v-180z" />
<glyph unicode="&#x2019;" horiz-adv-x="468" d="M376 1176q0 -83 -21 -144t-57 -104t-83.5 -69.5t-100.5 -40.5q25 26 44.5 57.5t33 67t20.5 72.5t8 73h-128v180l284 116v-208z" />
<glyph unicode="&#x201a;" horiz-adv-x="460" d="M370 78q0 -74 -20.5 -128.5t-56 -93t-83 -62t-100.5 -36.5q51 48 77.5 112.5t28.5 129.5h-126v162l280 116v-200z" />
<glyph unicode="&#x201c;" horiz-adv-x="824" d="M374 934l-282 -116v208q0 83 20.5 144t56.5 104t83.5 69.5t101.5 40.5q-51 -54 -78 -126t-30 -144h128v-180zM732 934l-282 -116v208q0 83 20.5 144t56.5 104t83.5 69.5t101.5 40.5q-51 -54 -78 -126t-30 -144h128v-180z" />
<glyph unicode="&#x201d;" horiz-adv-x="824" d="M376 1176q0 -83 -21 -144t-57 -104t-83.5 -69.5t-100.5 -40.5q25 26 44.5 57.5t33 67t20.5 72.5t8 73h-128v180l284 116v-208zM732 1176q0 -83 -21 -144t-57 -104t-83.5 -69.5t-100.5 -40.5q25 26 44.5 57.5t33 67t20.5 72.5t8 73h-128v180l284 116v-208z" />
<glyph unicode="&#x201e;" horiz-adv-x="832" d="M370 78q0 -74 -20.5 -128.5t-56 -93t-83 -62t-100.5 -36.5q51 48 77.5 112.5t28.5 129.5h-126v162l280 116v-200zM742 78q0 -74 -20.5 -128.5t-56 -93t-83 -62t-100.5 -36.5q51 48 77.5 112.5t28.5 129.5h-126v162l280 116v-200z" />
<glyph unicode="&#x2022;" horiz-adv-x="748" d="M596 312q-59 58 -117 107t-119.5 90t-130 75.5t-147.5 65.5l514 212v-550z" />
<glyph unicode="&#x2026;" horiz-adv-x="1398" d="M376 0h-284v178l284 118v-296zM842 0h-284v178l284 118v-296zM1308 0h-284v178l284 118v-296z" />
<glyph unicode="&#x202f;" horiz-adv-x="372" />
<glyph unicode="&#x2039;" horiz-adv-x="578" d="M526 404l-176 -122l-298 392l298 394l176 -122l-194 -272z" />
<glyph unicode="&#x203a;" horiz-adv-x="578" d="M228 282l-176 122l194 270l-194 272l176 122l298 -394z" />
<glyph unicode="&#x205f;" horiz-adv-x="465" />
<glyph unicode="&#x20ac;" horiz-adv-x="1308" d="M1262 28q-23 -9 -57 -18.5t-77.5 -17.5t-95.5 -13t-110 -5q-144 0 -259.5 35t-202 98t-143.5 151t-85 194h-142v156h118v52v41.5t2 40.5h-120v154h150q34 118 102.5 209t162 152.5t207.5 93t240 31.5q104 0 183 -14t127 -34l-42 -254q-45 20 -110 35t-148 15 q-67 0 -127.5 -14.5t-112 -43.5t-92.5 -73t-68 -103h464l-24 -154h-478q-2 -17 -3 -33t-1 -33q0 -18 1 -34.5t3 -33.5h458l-26 -156h-390q51 -106 152 -163t246 -57q71 0 141 11t117 31z" />
<glyph unicode="&#x2122;" horiz-adv-x="1534" d="M1434 740h-178l-34 348l-130 -348h-152l-120 366l-42 -366h-158l82 618h174l150 -412l148 412h178zM394 740h-174v476h-180v142h546l-20 -142h-172v-476z" />
<glyph unicode="&#x25fc;" horiz-adv-x="980" d="M0 980h980v-980h-980v980z" />
</font>
</defs>
</svg>
